<svg xmlns="http://www.w3.org/2000/svg" width="640" height="420" viewBox="0 0 640 420" fill="none">
  <rect width="640" height="420" rx="36" fill="url(#paint0_linear)"/>
  <circle cx="493" cy="98" r="92" fill="white" fill-opacity=".22"/>
  <circle cx="120" cy="332" r="110" fill="white" fill-opacity=".18"/>
  <rect x="78" y="74" width="180" height="272" rx="34" fill="white" fill-opacity=".9"/>
  <rect x="102" y="96" width="132" height="28" rx="14" fill="#D9F8F2"/>
  <rect x="102" y="140" width="132" height="114" rx="22" fill="#E9FDF8"/>
  <rect x="120" y="158" width="96" height="78" rx="18" fill="#20B8AC"/>
  <path d="M159 177h18c18 0 32 14 32 32v8c0 18-14 32-32 32h-18v-72Z" fill="white"/>
  <path d="M164 191h12c11 0 20 9 20 20v4c0 11-9 20-20 20h-12v-44Z" fill="#20B8AC"/>
  <rect x="286" y="102" width="248" height="54" rx="27" fill="white" fill-opacity=".82"/>
  <rect x="286" y="180" width="214" height="22" rx="11" fill="white" fill-opacity=".72"/>
  <rect x="286" y="214" width="178" height="22" rx="11" fill="white" fill-opacity=".58"/>
  <rect x="286" y="276" width="156" height="54" rx="27" fill="#0F6F69"/>
  <path d="M340 303h48" stroke="white" stroke-width="10" stroke-linecap="round"/>
  <path d="M510 248c0-34 28-62 62-62v0c0 34-28 62-62 62v0Z" fill="#FFF0C8"/>
  <defs>
    <linearGradient id="paint0_linear" x1="36" y1="38" x2="589" y2="377" gradientUnits="userSpaceOnUse">
      <stop stop-color="#1DB9AD"/>
      <stop offset="1" stop-color="#0F7F77"/>
    </linearGradient>
  </defs>
</svg>
